<mxfile host="app.diagrams.net" agent="Mozilla/5.0 (X11; Linux x86_64) AppleWebKit/537.36 (KHTML, like Gecko) Chrome/133.0.0.0 Safari/537.36" version="24.8.8">
  <diagram id="C5RBs43oDa-KdzZeNtuy" name="Page-1">
    <mxGraphModel dx="1707" dy="466" grid="1" gridSize="10" guides="1" tooltips="1" connect="1" arrows="1" fold="1" page="1" pageScale="1" pageWidth="827" pageHeight="1169" math="0" shadow="0">
      <root>
        <mxCell id="WIyWlLk6GJQsqaUBKTNV-0" />
        <mxCell id="WIyWlLk6GJQsqaUBKTNV-1" parent="WIyWlLk6GJQsqaUBKTNV-0" />
        <mxCell id="oQH9jiZr2FpD5HOw3rGv-2" value="" style="edgeStyle=orthogonalEdgeStyle;rounded=0;orthogonalLoop=1;jettySize=auto;html=1;" edge="1" parent="WIyWlLk6GJQsqaUBKTNV-1" source="oQH9jiZr2FpD5HOw3rGv-0" target="oQH9jiZr2FpD5HOw3rGv-1">
          <mxGeometry relative="1" as="geometry" />
        </mxCell>
        <mxCell id="oQH9jiZr2FpD5HOw3rGv-18" value="(1,N)" style="edgeLabel;html=1;align=center;verticalAlign=middle;resizable=0;points=[];" vertex="1" connectable="0" parent="oQH9jiZr2FpD5HOw3rGv-2">
          <mxGeometry x="-0.025" relative="1" as="geometry">
            <mxPoint as="offset" />
          </mxGeometry>
        </mxCell>
        <mxCell id="oQH9jiZr2FpD5HOw3rGv-0" value="USUARIO" style="rounded=1;whiteSpace=wrap;html=1;" vertex="1" parent="WIyWlLk6GJQsqaUBKTNV-1">
          <mxGeometry x="160" y="240" width="120" height="60" as="geometry" />
        </mxCell>
        <mxCell id="oQH9jiZr2FpD5HOw3rGv-4" value="" style="edgeStyle=orthogonalEdgeStyle;rounded=0;orthogonalLoop=1;jettySize=auto;html=1;" edge="1" parent="WIyWlLk6GJQsqaUBKTNV-1" source="oQH9jiZr2FpD5HOw3rGv-1" target="oQH9jiZr2FpD5HOw3rGv-3">
          <mxGeometry relative="1" as="geometry" />
        </mxCell>
        <mxCell id="oQH9jiZr2FpD5HOw3rGv-19" value="(1,N)" style="edgeLabel;html=1;align=center;verticalAlign=middle;resizable=0;points=[];" vertex="1" connectable="0" parent="oQH9jiZr2FpD5HOw3rGv-4">
          <mxGeometry x="0.05" y="-1" relative="1" as="geometry">
            <mxPoint as="offset" />
          </mxGeometry>
        </mxCell>
        <mxCell id="oQH9jiZr2FpD5HOw3rGv-15" style="edgeStyle=orthogonalEdgeStyle;rounded=0;orthogonalLoop=1;jettySize=auto;html=1;exitX=1;exitY=0.5;exitDx=0;exitDy=0;" edge="1" parent="WIyWlLk6GJQsqaUBKTNV-1" source="oQH9jiZr2FpD5HOw3rGv-1" target="oQH9jiZr2FpD5HOw3rGv-16">
          <mxGeometry relative="1" as="geometry">
            <mxPoint x="610" y="270" as="targetPoint" />
          </mxGeometry>
        </mxCell>
        <mxCell id="oQH9jiZr2FpD5HOw3rGv-17" value="(1,1)" style="edgeLabel;html=1;align=center;verticalAlign=middle;resizable=0;points=[];" vertex="1" connectable="0" parent="oQH9jiZr2FpD5HOw3rGv-15">
          <mxGeometry x="-0.4286" y="-2" relative="1" as="geometry">
            <mxPoint as="offset" />
          </mxGeometry>
        </mxCell>
        <mxCell id="oQH9jiZr2FpD5HOw3rGv-1" value="PEDIDO" style="whiteSpace=wrap;html=1;rounded=1;" vertex="1" parent="WIyWlLk6GJQsqaUBKTNV-1">
          <mxGeometry x="360" y="240" width="120" height="60" as="geometry" />
        </mxCell>
        <mxCell id="oQH9jiZr2FpD5HOw3rGv-6" value="" style="edgeStyle=orthogonalEdgeStyle;rounded=0;orthogonalLoop=1;jettySize=auto;html=1;" edge="1" parent="WIyWlLk6GJQsqaUBKTNV-1" source="oQH9jiZr2FpD5HOw3rGv-3" target="oQH9jiZr2FpD5HOw3rGv-5">
          <mxGeometry relative="1" as="geometry" />
        </mxCell>
        <mxCell id="oQH9jiZr2FpD5HOw3rGv-20" value="(N,1)" style="edgeLabel;html=1;align=center;verticalAlign=middle;resizable=0;points=[];" vertex="1" connectable="0" parent="oQH9jiZr2FpD5HOw3rGv-6">
          <mxGeometry x="-0.12" relative="1" as="geometry">
            <mxPoint as="offset" />
          </mxGeometry>
        </mxCell>
        <mxCell id="oQH9jiZr2FpD5HOw3rGv-3" value="ITENS PEDIDO" style="whiteSpace=wrap;html=1;rounded=1;" vertex="1" parent="WIyWlLk6GJQsqaUBKTNV-1">
          <mxGeometry x="360" y="380" width="120" height="60" as="geometry" />
        </mxCell>
        <mxCell id="oQH9jiZr2FpD5HOw3rGv-5" value="PRODUTO" style="whiteSpace=wrap;html=1;rounded=1;" vertex="1" parent="WIyWlLk6GJQsqaUBKTNV-1">
          <mxGeometry x="360" y="540" width="120" height="60" as="geometry" />
        </mxCell>
        <mxCell id="oQH9jiZr2FpD5HOw3rGv-22" value="" style="edgeStyle=orthogonalEdgeStyle;rounded=0;orthogonalLoop=1;jettySize=auto;html=1;" edge="1" parent="WIyWlLk6GJQsqaUBKTNV-1" source="oQH9jiZr2FpD5HOw3rGv-7" target="oQH9jiZr2FpD5HOw3rGv-21">
          <mxGeometry relative="1" as="geometry" />
        </mxCell>
        <mxCell id="oQH9jiZr2FpD5HOw3rGv-23" value="(1,N)" style="edgeLabel;html=1;align=center;verticalAlign=middle;resizable=0;points=[];" vertex="1" connectable="0" parent="oQH9jiZr2FpD5HOw3rGv-22">
          <mxGeometry x="-0.1" y="-2" relative="1" as="geometry">
            <mxPoint as="offset" />
          </mxGeometry>
        </mxCell>
        <mxCell id="oQH9jiZr2FpD5HOw3rGv-7" value="ATELIE" style="whiteSpace=wrap;html=1;rounded=1;" vertex="1" parent="WIyWlLk6GJQsqaUBKTNV-1">
          <mxGeometry x="110" y="540" width="120" height="60" as="geometry" />
        </mxCell>
        <mxCell id="oQH9jiZr2FpD5HOw3rGv-9" value="" style="endArrow=classic;startArrow=classic;html=1;rounded=0;entryX=0;entryY=0.5;entryDx=0;entryDy=0;exitX=1;exitY=0.5;exitDx=0;exitDy=0;" edge="1" parent="WIyWlLk6GJQsqaUBKTNV-1" source="oQH9jiZr2FpD5HOw3rGv-7" target="oQH9jiZr2FpD5HOw3rGv-5">
          <mxGeometry width="50" height="50" relative="1" as="geometry">
            <mxPoint x="230" y="580" as="sourcePoint" />
            <mxPoint x="280" y="530" as="targetPoint" />
          </mxGeometry>
        </mxCell>
        <mxCell id="oQH9jiZr2FpD5HOw3rGv-10" value="(1,N)" style="edgeLabel;html=1;align=center;verticalAlign=middle;resizable=0;points=[];" vertex="1" connectable="0" parent="oQH9jiZr2FpD5HOw3rGv-9">
          <mxGeometry x="0.0462" y="1" relative="1" as="geometry">
            <mxPoint as="offset" />
          </mxGeometry>
        </mxCell>
        <mxCell id="oQH9jiZr2FpD5HOw3rGv-11" value="" style="endArrow=classic;startArrow=classic;html=1;rounded=0;entryX=0;entryY=0.5;entryDx=0;entryDy=0;" edge="1" parent="WIyWlLk6GJQsqaUBKTNV-1" target="oQH9jiZr2FpD5HOw3rGv-7">
          <mxGeometry width="50" height="50" relative="1" as="geometry">
            <mxPoint x="-60" y="570" as="sourcePoint" />
            <mxPoint x="100" y="570" as="targetPoint" />
          </mxGeometry>
        </mxCell>
        <mxCell id="oQH9jiZr2FpD5HOw3rGv-13" value="(1,1)" style="edgeLabel;html=1;align=center;verticalAlign=middle;resizable=0;points=[];" vertex="1" connectable="0" parent="oQH9jiZr2FpD5HOw3rGv-11">
          <mxGeometry x="-0.1059" y="1" relative="1" as="geometry">
            <mxPoint as="offset" />
          </mxGeometry>
        </mxCell>
        <mxCell id="oQH9jiZr2FpD5HOw3rGv-12" value="CLIENTE" style="rounded=1;whiteSpace=wrap;html=1;" vertex="1" parent="WIyWlLk6GJQsqaUBKTNV-1">
          <mxGeometry x="-180" y="540" width="120" height="60" as="geometry" />
        </mxCell>
        <mxCell id="oQH9jiZr2FpD5HOw3rGv-16" value="PAGAMENTO" style="rounded=1;whiteSpace=wrap;html=1;" vertex="1" parent="WIyWlLk6GJQsqaUBKTNV-1">
          <mxGeometry x="550" y="240" width="120" height="60" as="geometry" />
        </mxCell>
        <mxCell id="oQH9jiZr2FpD5HOw3rGv-21" value="ASSINATURA" style="whiteSpace=wrap;html=1;rounded=1;" vertex="1" parent="WIyWlLk6GJQsqaUBKTNV-1">
          <mxGeometry x="110" y="680" width="120" height="60" as="geometry" />
        </mxCell>
      </root>
    </mxGraphModel>
  </diagram>
</mxfile>
